# xmcd
#
# Track frame offsets: 
#        150
#        21578
#        42378
#        67615
#        78817
#        97231
#        122552
#        143288
#        155325
#        180875
#        201412
#        227401
#        246503
#
# Disc length: 3519 seconds
#
# Revision: 0
# Processed by: cddbd v1.5.2PL0 Copyright (c) Steve Scherf et al.
# Submitted via: ExactAudioCopy v1.0b1
#
DISCID=a00dbd0d
DTITLE=Stacey Kent - Dreamsville
DYEAR=2000
DGENRE=Blues
TTITLE0=I've Got A Crush On You
TTITLE1=When Your Lover Has Gone
TTITLE2=Isn't It a Pity?
TTITLE3=You Are There
TTITLE4=Under a Blanket of Blue
TTITLE5=Dreamsville
TTITLE6=Polka Dots and Moonbeams
TTITLE7=Hushabye Mountain
TTITLE8=Little Girl Blue
TTITLE9=You're Looking At Me
TTITLE10=Violets For Your Furs
TTITLE11=Thanks For The Memory
TTITLE12=The Christmas Song
EXTD=
EXTT0=
EXTT1=
EXTT2=
EXTT3=
EXTT4=
EXTT5=
EXTT6=
EXTT7=
EXTT8=
EXTT9=
EXTT10=
EXTT11=
EXTT12=
PLAYORDER=
